<?xml version="1.0" encoding="utf-8"?>
<!-- Generator: Adobe Illustrator 17.0.0, SVG Export Plug-In . SVG Version: 6.00 Build 0)  -->
<!DOCTYPE svg PUBLIC "-//W3C//DTD SVG 1.1//EN" "http://www.w3.org/Graphics/SVG/1.1/DTD/svg11.dtd">
<svg version="1.1" id="Calque_1" xmlns="http://www.w3.org/2000/svg" xmlns:xlink="http://www.w3.org/1999/xlink" x="0px" y="0px"
	 width="15.671px" height="19.355px" viewBox="0 0 15.671 19.355" enable-background="new 0 0 15.671 19.355" xml:space="preserve">
<g>
</g>
<g>
	<path d="M-107.354-6.555v23.91h-18.677v-23.91H-107.354 M-105.354-8.555h-22.677v27.91h22.677V-8.555L-105.354-8.555z"/>
</g>
<circle fill="#E9E000" stroke="#000000" stroke-miterlimit="10" cx="-116.693" cy="5.4" r="5.4"/>
<polygon fill="#3BA850" points="-69.086,4.326 -74.944,4.326 -72.015,-1.532 -72.015,-1.532 "/>
<circle fill="#40BCE9" cx="-69.964" cy="9.403" r="2.929"/>
<rect x="-80.111" y="5.213" transform="matrix(-0.7071 0.7071 -0.7071 -0.7071 -127.9049 67.6851)" fill="#D23F1A" width="4.28" height="4.28"/>
<g>
	<rect x="-37.339" y="2.578" fill="none" width="12" height="11.75"/>
	<path d="M-34.021,6.789V6.753l2.368-1.359v0.819l-0.99,0.567l0.99,0.567v0.819L-34.021,6.789z"/>
	<path d="M-31.024,7.347l0.99-0.567l-0.99-0.567V5.394l2.368,1.377v0.036l-2.368,1.359V7.347z"/>
</g>
<g>
	<line fill="none" stroke="#000000" stroke-width="0.691" stroke-miterlimit="10" x1="4.841" y1="13.396" x2="10.83" y2="13.396"/>
	<line fill="none" stroke="#000000" stroke-width="0.691" stroke-miterlimit="10" x1="4.841" y1="11.555" x2="10.83" y2="11.555"/>
	<line fill="none" stroke="#000000" stroke-width="0.691" stroke-miterlimit="10" x1="4.841" y1="9.711" x2="10.83" y2="9.711"/>
	<line fill="none" stroke="#000000" stroke-width="0.691" stroke-miterlimit="10" x1="4.841" y1="7.868" x2="10.83" y2="7.868"/>
	<line fill="none" stroke="#000000" stroke-width="0.691" stroke-miterlimit="10" x1="4.841" y1="6.027" x2="10.83" y2="6.027"/>
</g>
<rect x="-105.355" y="127.507" fill="none" stroke="#000000" stroke-width="0.9014" stroke-miterlimit="10" width="13" height="16"/>
<g>
	
		<line fill="none" stroke="#000000" stroke-width="0.5" stroke-miterlimit="10" x1="-103.188" y1="140.839" x2="-94.522" y2="140.839"/>
	
		<line fill="none" stroke="#000000" stroke-width="0.5" stroke-miterlimit="10" x1="-103.188" y1="138.175" x2="-94.522" y2="138.175"/>
	
		<line fill="none" stroke="#000000" stroke-width="0.5" stroke-miterlimit="10" x1="-103.188" y1="135.507" x2="-94.522" y2="135.507"/>
	
		<line fill="none" stroke="#000000" stroke-width="0.5" stroke-miterlimit="10" x1="-103.188" y1="132.839" x2="-94.522" y2="132.839"/>
	
		<line fill="none" stroke="#000000" stroke-width="0.5" stroke-miterlimit="10" x1="-103.188" y1="130.175" x2="-94.522" y2="130.175"/>
</g>
<g>
	<path d="M-107.354-6.555v23.91h-18.677v-23.91H-107.354 M-105.354-8.555h-22.677v27.91h22.677V-8.555L-105.354-8.555z"/>
</g>
<g>
	<path d="M-64.677-6.555v23.91h-18.677v-23.91H-64.677 M-62.677-8.555h-22.677v27.91h22.677V-8.555L-62.677-8.555z"/>
</g>
<g>
	<path d="M-22-6.555v23.91h-18.677v-23.91H-22 M-20-8.555h-22.677v27.91H-20V-8.555L-20-8.555z"/>
</g>
<g>
	<path d="M14.289,1.45v16.523H1.382V1.45H14.289 M15.671,0.068H0v19.287h15.671V0.068L15.671,0.068z"/>
</g>
<g>
</g>
<g>
</g>
<g>
</g>
<g>
</g>
<g>
</g>
<g>
</g>
</svg>
