<?xml version="1.0" encoding="utf-8"?>
<!-- Generator: Adobe Illustrator 17.0.0, SVG Export Plug-In . SVG Version: 6.00 Build 0)  -->
<!DOCTYPE svg PUBLIC "-//W3C//DTD SVG 1.1//EN" "http://www.w3.org/Graphics/SVG/1.1/DTD/svg11.dtd">
<svg version="1.1" id="Calque_1" xmlns="http://www.w3.org/2000/svg" xmlns:xlink="http://www.w3.org/1999/xlink" x="0px" y="0px"
	 width="22.677px" height="27.91px" viewBox="0 0 22.677 27.91" enable-background="new 0 0 22.677 27.91" xml:space="preserve">
<g>
</g>
<g>
	<path d="M-107.354,2v23.91h-18.677V2H-107.354 M-105.354,0h-22.677v27.91h22.677V0L-105.354,0z"/>
</g>
<circle fill="#E9E000" stroke="#000000" stroke-miterlimit="10" cx="-116.693" cy="13.955" r="5.4"/>
<polygon fill="#3BA850" points="-69.086,12.881 -74.944,12.881 -72.015,7.023 -72.015,7.023 "/>
<circle fill="#40BCE9" cx="-69.964" cy="17.958" r="2.929"/>
<rect x="-80.111" y="13.768" transform="matrix(-0.7071 0.7071 -0.7071 -0.7071 -121.8553 82.29)" fill="#D23F1A" width="4.28" height="4.28"/>
<g>
	<rect x="-37.339" y="11.133" fill="none" width="12" height="11.75"/>
	<path d="M-34.021,15.345v-0.036l2.368-1.359v0.819l-0.99,0.567l0.99,0.567v0.819L-34.021,15.345z"/>
	<path d="M-31.024,15.903l0.99-0.567l-0.99-0.567v-0.819l2.368,1.377v0.036l-2.368,1.359V15.903z"/>
</g>
<g>
	<line fill="none" stroke="#000000" stroke-miterlimit="10" x1="7.005" y1="19.287" x2="15.672" y2="19.287"/>
	<line fill="none" stroke="#000000" stroke-miterlimit="10" x1="7.005" y1="16.623" x2="15.672" y2="16.623"/>
	<line fill="none" stroke="#000000" stroke-miterlimit="10" x1="7.005" y1="13.955" x2="15.672" y2="13.955"/>
	<line fill="none" stroke="#000000" stroke-miterlimit="10" x1="7.005" y1="11.287" x2="15.672" y2="11.287"/>
	<line fill="none" stroke="#000000" stroke-miterlimit="10" x1="7.005" y1="8.623" x2="15.672" y2="8.623"/>
</g>
<rect x="-105.355" y="136.063" fill="none" stroke="#000000" stroke-width="0.9014" stroke-miterlimit="10" width="13" height="16"/>
<g>
	
		<line fill="none" stroke="#000000" stroke-width="0.5" stroke-miterlimit="10" x1="-103.188" y1="149.395" x2="-94.522" y2="149.395"/>
	
		<line fill="none" stroke="#000000" stroke-width="0.5" stroke-miterlimit="10" x1="-103.188" y1="146.731" x2="-94.522" y2="146.731"/>
	
		<line fill="none" stroke="#000000" stroke-width="0.5" stroke-miterlimit="10" x1="-103.188" y1="144.063" x2="-94.522" y2="144.063"/>
	
		<line fill="none" stroke="#000000" stroke-width="0.5" stroke-miterlimit="10" x1="-103.188" y1="141.395" x2="-94.522" y2="141.395"/>
	
		<line fill="none" stroke="#000000" stroke-width="0.5" stroke-miterlimit="10" x1="-103.188" y1="138.731" x2="-94.522" y2="138.731"/>
</g>
<g>
	<path d="M-107.354,2v23.91h-18.677V2H-107.354 M-105.354,0h-22.677v27.91h22.677V0L-105.354,0z"/>
</g>
<g>
	<path d="M-64.677,2v23.91h-18.677V2H-64.677 M-62.677,0h-22.677v27.91h22.677V0L-62.677,0z"/>
</g>
<g>
	<path d="M-22,2v23.91h-18.677V2H-22 M-20,0h-22.677v27.91H-20V0L-20,0z"/>
</g>
<g>
	<path d="M20.677,2v23.91H2V2H20.677 M22.677,0H0v27.91h22.677V0L22.677,0z"/>
</g>
<g>
</g>
<g>
</g>
<g>
</g>
<g>
</g>
<g>
</g>
<g>
</g>
</svg>
