<?xml version="1.0" encoding="utf-8"?>
<!-- Generator: Adobe Illustrator 17.0.0, SVG Export Plug-In . SVG Version: 6.00 Build 0)  -->
<!DOCTYPE svg PUBLIC "-//W3C//DTD SVG 1.1//EN" "http://www.w3.org/Graphics/SVG/1.1/DTD/svg11.dtd">
<svg version="1.1" id="Calque_1" xmlns="http://www.w3.org/2000/svg" xmlns:xlink="http://www.w3.org/1999/xlink" x="0px" y="0px"
	 width="15px" height="15px" viewBox="0 0 15 15" enable-background="new 0 0 15 15" xml:space="preserve">
<g>
	<path fill="#FFFFFF" d="M7.5,14.579c-3.906,0-7.083-3.177-7.083-7.082c0-3.905,3.178-7.083,7.083-7.083
		c3.906,0,7.083,3.177,7.083,7.083C14.583,11.402,11.406,14.579,7.5,14.579z"/>
	<path fill="#1A171B" d="M7.5,0.664c3.769,0,6.835,3.066,6.835,6.834s-3.066,6.834-6.835,6.834s-6.835-3.066-6.835-6.834
		S3.731,0.664,7.5,0.664 M7.5,0.167c-4.049,0-7.332,3.282-7.332,7.331s3.283,7.331,7.332,7.331s7.332-3.282,7.332-7.331
		S11.549,0.167,7.5,0.167L7.5,0.167z"/>
</g>
</svg>
